<?xml version="1.0" standalone="no"?>
<!DOCTYPE svg PUBLIC "-//W3C//DTD SVG 20010904//EN"
 "http://www.w3.org/TR/2001/REC-SVG-20010904/DTD/svg10.dtd">
<svg version="1.0" xmlns="http://www.w3.org/2000/svg"
 width="200.000000pt" height="200.000000pt" viewBox="0 0 200.000000 200.000000"
 preserveAspectRatio="xMidYMid meet">
<metadata>
Created by potrace 1.11, written by Peter Selinger 2001-2013
</metadata>
<g transform="translate(0.000000,200.000000) scale(0.100000,-0.100000)"
fill="#000000" stroke="none">
<path d="M770 1935 c-109 -62 -118 -65 -182 -65 -65 0 -68 -1 -94 -35 -14 -19
-31 -35 -37 -35 -6 0 -26 15 -44 32 l-34 33 -102 -54 c-56 -30 -108 -59 -116
-66 -7 -7 -19 -40 -26 -73 l-12 -61 53 -94 c30 -52 61 -100 69 -107 14 -11 28
-8 93 24 l77 38 102 -39 102 -38 203 -250 203 -249 63 -11 c59 -9 71 -17 201
-118 l137 -109 48 -113 47 -114 -41 -81 c-23 -45 -39 -88 -36 -96 13 -33 47
-11 131 82 l86 95 -27 47 c-15 26 -36 61 -46 77 -26 44 -23 56 27 105 l45 44
42 -32 c113 -83 117 -85 134 -72 24 21 43 65 34 79 -4 7 -84 64 -176 125 -158
104 -169 114 -167 141 3 44 -12 55 -81 55 l-62 0 -104 152 c-57 83 -157 212
-222 286 -65 74 -118 140 -118 147 0 6 45 44 100 85 l101 73 -3 80 -3 80 -115
48 c-63 27 -119 49 -125 49 -5 -1 -62 -30 -125 -65z m258 -33 l62 -26 0 -57 0
-58 -85 -61 c-97 -70 -120 -98 -109 -132 3 -13 59 -81 123 -153 64 -71 163
-197 220 -280 57 -82 110 -156 119 -162 9 -7 40 -13 69 -13 52 0 53 -1 53 -28
0 -37 16 -51 196 -169 93 -60 149 -103 146 -111 -3 -9 -13 -6 -36 11 -66 51
-110 77 -128 77 -23 0 -117 -86 -130 -119 -9 -25 0 -49 54 -141 l27 -45 -39
-45 -39 -45 17 47 16 46 -38 94 c-61 149 -61 149 -218 271 -133 104 -151 115
-198 120 -29 4 -57 11 -64 16 -6 5 -99 118 -206 250 l-195 240 -80 31 c-149
58 -156 59 -230 22 -36 -18 -67 -32 -69 -32 -2 0 -25 37 -51 83 -40 71 -46 87
-40 121 9 59 17 68 109 116 l85 45 29 -28 c40 -38 76 -36 115 8 29 33 35 35
91 35 56 0 70 6 176 64 l114 65 36 -16 c19 -8 63 -26 98 -41z"/>
<path d="M419 845 c-41 -19 -78 -40 -83 -48 -7 -10 -1 -34 17 -77 22 -49 27
-77 27 -140 0 -123 42 -192 83 -136 10 15 24 26 30 26 31 1 38 23 56 156 l18
139 -25 52 c-14 29 -31 54 -37 57 -7 2 -45 -11 -86 -29z m89 -52 c18 -36 19
-43 3 -156 -15 -112 -17 -118 -45 -132 -15 -8 -30 -15 -32 -15 -2 0 -4 34 -4
75 0 57 -6 90 -26 140 -15 36 -25 67 -23 69 4 4 102 55 106 56 2 0 11 -17 21
-37z"/>
<path d="M1120 286 c-63 -6 -121 -15 -127 -19 -7 -5 -13 -21 -13 -37 0 -26 12
-35 148 -113 81 -46 161 -93 179 -103 32 -19 32 -19 57 5 31 30 32 40 5 85
l-20 34 21 71 c12 39 19 75 15 81 -8 12 -110 11 -265 -4z m217 -38 c-2 -7 -10
-37 -18 -66 -12 -48 -11 -56 6 -88 10 -19 16 -37 12 -40 -6 -7 -307 165 -307
176 0 4 55 12 123 17 183 15 190 15 184 1z"/>
</g>
</svg>
